<svg width="512" height="512" viewBox="0 0 512 512" fill="none" xmlns="http://www.w3.org/2000/svg">
<rect width="512" height="512" rx="98" fill="url(#paint0_linear)"/>
<path d="M307.128 269.749H355.723C355.723 269.749 359.664 269.749 359.664 272.72C359.664 275.691 355.723 275.691 355.723 275.691H307.128C307.128 275.691 303.188 275.854 303.188 272.72C303.188 269.586 307.128 269.749 307.128 269.749Z" fill="#FFE6C9"/>
<path d="M124.251 405.771C117.934 405.771 112.123 404.077 106.819 400.689C101.563 397.253 97.44 392.558 94.4503 386.605C91.4607 380.652 89.9658 374.045 89.9658 366.785V363.518C89.9658 356.258 91.4124 349.604 94.3057 343.554C97.1989 337.504 101.177 332.785 106.24 329.397C111.303 326.009 116.825 324.315 122.804 324.315C131.532 324.315 138.669 327.436 144.214 333.68C149.76 339.924 152.532 348.127 152.532 358.291V362.429H93.8717V366.713C93.8717 373.102 95.1978 379.031 97.8499 384.5C100.55 389.921 104.239 394.18 108.917 397.277C113.642 400.375 118.754 401.924 124.251 401.924C129.507 401.924 133.967 401.052 137.632 399.31C141.345 397.519 144.624 394.785 147.469 391.106C147.469 391.106 148.676 389.848 149.912 390.909C150.708 391.592 150.218 393.067 150.218 393.067C144.383 401.536 135.727 405.771 124.251 405.771ZM122.804 328.235C115.185 328.235 108.724 331.091 103.419 336.802C98.1151 342.465 95.0049 349.7 94.0887 358.509H148.626V357.565C148.626 352.241 147.493 347.305 145.227 342.755C143.009 338.157 139.922 334.6 135.968 332.083C132.063 329.518 127.674 328.235 122.804 328.235Z" fill="#FFE6C9"/>
<path d="M189.176 398.076L217.312 325.767C217.312 325.767 218.372 323.676 219.791 323.676C221.564 323.676 221.508 325.767 221.508 325.767L191.056 404.319C191.056 404.319 190.35 405.771 189.139 405.771C187.929 405.771 187.223 404.319 187.223 404.319L156.844 325.767C156.844 325.767 156.999 324.03 158.78 324.03C160.199 324.03 161.039 325.767 161.039 325.767L189.176 398.076Z" fill="#FFE6C9"/>
<path d="M260.466 405.771C254.149 405.771 248.338 404.077 243.034 400.689C237.778 397.253 233.655 392.558 230.665 386.605C227.676 380.652 226.181 374.045 226.181 366.785V363.518C226.181 356.258 227.627 349.604 230.521 343.554C233.414 337.504 237.392 332.785 242.455 329.397C247.518 326.009 253.04 324.315 259.019 324.315C267.747 324.315 274.884 327.436 280.429 333.68C285.974 339.924 288.747 348.127 288.747 358.291V362.429H230.087V366.713C230.087 373.102 231.413 379.031 234.065 384.5C236.765 389.921 240.454 394.18 245.132 397.277C249.857 400.375 254.969 401.924 260.466 401.924C265.722 401.924 270.182 401.052 273.847 399.31C277.56 397.519 280.839 394.785 283.684 391.106C283.684 391.106 285.324 390.202 286.122 390.909C286.92 391.617 286.433 393.067 286.433 393.067C280.598 401.536 271.942 405.771 260.466 405.771ZM259.019 328.235C251.4 328.235 244.939 331.091 239.634 336.802C234.33 342.465 231.22 349.7 230.304 358.509H284.841V357.565C284.841 352.241 283.708 347.305 281.442 342.755C279.224 338.157 276.137 334.6 272.183 332.083C268.277 329.518 263.889 328.235 259.019 328.235Z" fill="#FFE6C9"/>
<path d="M307.308 344.062C309.864 337.963 313.625 333.148 318.591 329.614C323.558 326.081 329.055 324.315 335.083 324.315C343.473 324.315 349.694 326.71 353.744 331.502C357.843 336.245 359.917 343.433 359.965 353.064V404.319C359.965 404.319 359.698 406.479 358.012 406.479C356.326 406.479 356.059 404.319 356.059 404.319V352.919C356.011 344.497 354.299 338.278 350.923 334.261C347.548 330.195 342.196 328.162 334.866 328.162C328.115 328.162 322.256 330.582 317.29 335.422C312.371 340.214 309.044 346.409 307.308 354.008V404.319C307.308 404.319 307.05 406.479 305.277 406.479C303.858 406.479 303.402 404.319 303.402 404.319V325.767C303.402 325.767 303.858 323.676 305.277 323.676C307.05 323.676 307.308 325.767 307.308 325.767V344.062Z" fill="#FFE6C9"/>
<path d="M389.737 304.567V325.767H407.53C407.53 325.767 409.917 325.767 409.917 327.763C409.917 329.76 407.53 329.76 407.53 329.76H389.737V385.516C389.737 391.082 390.629 395.196 392.413 397.858C394.246 400.52 397.283 401.851 401.527 401.851C403.649 401.851 406.228 401.633 409.266 401.198C409.266 401.198 411.247 400.817 411.691 402.587C412.046 404.002 409.917 404.9 409.917 404.9C408.326 405.481 405.601 405.771 401.744 405.771C396.054 405.771 391.979 404.198 389.52 401.052C387.061 397.858 385.807 392.849 385.759 386.024V329.76H371.292C371.292 329.76 369.48 329.338 369.48 327.922C369.48 325.799 371.292 325.767 371.292 325.767H385.759V304.567C385.759 304.567 385.93 302.444 387.57 302.444C389.699 302.444 389.737 304.567 389.737 304.567Z" fill="#FFE6C9"/>
<circle cx="433.653" cy="402.392" r="3.34398" fill="#FFE6C9"/>
<path d="M291.61 118.729H374.489C374.489 118.729 377.223 118.369 377.178 115.694C377.146 113.783 374.667 113.203 374.667 113.203H288.07C288.07 113.203 284.07 113.056 283.786 115.745C283.691 116.643 283.899 117.272 284.249 117.713C284.385 117.999 284.503 118.177 284.503 118.177L327.667 189.275C327.667 189.275 329.644 191.962 331.95 190.586C333.597 189.603 332.609 187.309 332.609 187.309L291.61 118.729Z" fill="#FFE6C9"/>
<path d="M173.501 237.245L117.641 110.93C117.641 110.93 116.356 107.007 113.052 107.007C109.088 107.007 110.08 111.257 110.08 111.257L167.886 239.371C167.886 239.371 170.198 243.293 172.51 241.986C174.823 240.678 173.501 237.245 173.501 237.245Z" fill="#FFE6C9"/>
<path fill-rule="evenodd" clip-rule="evenodd" d="M366.756 146.18C368.457 147.209 370.43 148.07 372.241 148.846C379.046 151.761 387.207 152.911 394.629 152.058C404.025 150.978 412.798 146.81 419.572 140.209C426.346 133.607 430.738 124.945 432.059 115.579C433.381 106.213 431.558 96.6739 426.875 88.4558C422.193 80.2376 414.916 73.8053 406.185 70.1672C397.454 66.529 387.763 65.8907 378.63 68.3521C369.498 70.8135 361.44 76.2357 355.72 83.7686C351.202 89.718 348.345 96.4898 347.383 103.829C347.127 105.783 347.006 107.989 347.023 109.978L388.333 109.978L366.756 146.18ZM353.366 103.829C354.294 97.8053 356.708 92.25 360.432 87.3464C365.36 80.8565 372.302 76.1851 380.17 74.0645C388.038 71.9439 396.388 72.4939 403.909 75.6283C411.431 78.7627 417.701 84.3043 421.735 91.3846C425.769 98.4649 427.34 106.684 426.201 114.752C425.062 122.821 421.278 130.284 415.443 135.972C409.607 141.659 402.049 145.25 393.953 146.18C387.836 146.883 381.674 146.038 376.019 143.764L399.562 103.829L353.366 103.829Z" fill="#FFE6C9"/>
<path d="M355.582 170.907C354.194 169.932 352.271 170.343 351.403 171.799L329.859 207.952L271.524 109.798C271.524 109.798 269.886 106.194 266.938 107.177C263.989 108.16 265.299 111.764 265.299 111.764L326.804 213.509V273.554H332.914V213.509L356.397 174.802C357.192 173.491 356.836 171.789 355.582 170.907Z" fill="#FFE6C9"/>
<path d="M361.929 154.136C361.127 155.481 361.498 157.218 362.78 158.119C364.198 159.116 366.163 158.704 367.062 157.222L395.04 111.107C395.04 111.107 396.678 107.177 392.091 107.177C389.938 107.177 387.571 111.107 387.571 111.107L361.929 154.136Z" fill="#FFE6C9"/>
<path d="M154.591 239.136C156.091 238.416 157.89 239.087 158.553 240.613L170.12 267.261L238.13 111.107C238.13 111.107 239.417 107.176 242.693 107.176C246.952 107.176 247.069 111.107 247.069 111.107V276.22C247.069 276.22 246.952 280.151 244.014 280.151C241.076 280.151 240.959 276.22 240.959 276.22V120.179L172.609 276.22C172.609 276.22 170.943 280.151 170.177 280.151C169.41 280.151 167.744 276.22 167.744 276.22L153.173 242.959C152.539 241.511 153.166 239.821 154.591 239.136V239.136Z" fill="#FFE6C9"/>
<path d="M143.081 212.204C144.532 211.508 145.173 209.79 144.532 208.314L102.336 111.107C102.336 111.107 101.158 107.176 97.8822 107.176C94.6059 107.176 93.623 111.107 93.623 111.107V276.22C93.623 276.22 93.9507 280.151 96.5717 280.151C99.7337 280.151 99.7337 276.22 99.7337 276.22V120.973L139.044 210.707C139.724 212.259 141.554 212.938 143.081 212.204V212.204Z" fill="#FFE6C9"/>
<defs>
<linearGradient id="paint0_linear" x1="4.13484e-06" y1="26.7755" x2="512" y2="512" gradientUnits="userSpaceOnUse">
<stop stop-color="#1B2F63"/>
<stop offset="1" stop-color="#1A3E73"/>
</linearGradient>
</defs>
</svg>
